# Blender v2.90.1 OBJ File: ''
# www.blender.org
mtllib cloud3-facefilter.mtl
o cloudy-clouds_v1
v -4.323520 7.783366 -10.855195
v -4.017961 8.020591 -10.962850
v -3.689731 7.651226 -10.686473
v -5.265169 8.073943 -10.599020
v -4.845323 8.275591 -10.941272
v -5.354444 8.413950 -10.647073
v -3.931940 8.101696 -7.023125
v -4.130006 8.336655 -7.213202
v -4.310903 8.095499 -8.030146
v -4.355385 8.391609 -7.920093
v -0.945051 7.374621 -5.584719
v -0.790322 7.509715 -5.503477
v -2.212290 7.939196 -5.564816
v 0.634532 6.996340 -6.239871
v -3.052336 7.944916 -6.099936
v -3.371429 8.281672 -6.243656
v 1.270015 6.472697 -7.738884
v 1.285498 6.297647 -9.175449
v 1.483007 6.617370 -7.713281
v 1.084727 6.487276 -10.207391
v 1.520138 6.491584 -9.060065
v 0.775157 6.319422 -10.262923
v 0.871367 6.710507 -6.794353
v -1.765796 6.920951 -11.520417
v -0.721668 6.814403 -11.594563
v -0.531346 6.573450 -11.293029
v -3.131882 7.662154 -11.243464
v -2.014716 7.229604 -11.666707
v -2.981707 7.321947 -11.174003
v 0.265810 6.511267 -11.027313
v -5.785518 8.353805 -9.540979
v -5.752075 8.564603 -10.090400
v -5.256567 8.334985 -8.334609
v -5.686296 8.612090 -8.733136
v -5.836157 8.715972 -9.484029
v -5.067603 8.603262 -8.133051
v -3.724414 8.966228 -7.112686
v -2.746305 8.880949 -6.157415
v -1.826714 8.677006 -5.773396
v -0.965831 8.395767 -5.669031
v -0.040425 8.056911 -5.891013
v -1.755672 9.420235 -6.302401
v -0.611902 9.136081 -6.237831
v -0.649928 9.761976 -6.931325
v -1.512157 10.028337 -7.142159
v -2.835525 9.794438 -7.283132
v 0.265448 8.908879 -6.551620
v 0.802253 7.733351 -6.454439
v 1.510303 7.475514 -7.590405
v 1.642221 7.241796 -8.844076
v 1.405408 7.133789 -9.752932
v 0.862855 7.528098 -10.630730
v 1.374808 8.142859 -9.434861
v 0.836709 8.237963 -10.404182
v 0.971117 9.179925 -8.804905
v 1.326231 8.576233 -8.309006
v 1.037320 8.620850 -7.339295
v -1.157983 9.620322 -10.574530
v -0.132595 8.660200 -11.011748
v -1.662032 9.092096 -11.073844
v -0.959870 7.982768 -11.566984
v 0.008320 7.320134 -11.329597
v -2.095604 8.252884 -11.497055
v -2.783092 8.837075 -10.959589
v -3.538571 9.546486 -7.922022
v -2.418472 9.566001 -10.434701
v -2.410795 10.087696 -9.534302
v -3.563581 9.290652 -9.757774
v -3.059860 9.962089 -8.790663
v -3.513226 8.535150 -10.608586
v -4.020239 9.113501 -8.384951
v -4.192226 8.866796 -10.732526
v -4.844007 9.042752 -10.531539
v -5.293744 9.188136 -8.833973
v -5.312781 9.211188 -9.857997
v -4.585443 9.056642 -8.289285
v -4.312253 9.463144 -8.961428
v -4.210499 9.467065 -9.899740
v -4.932198 9.479414 -9.471396
v -0.075911 9.539600 -10.083261
v 0.197381 9.709245 -7.660491
v -1.854997 10.308098 -8.078487
v 0.711253 8.972459 -9.904026
v -0.796995 9.940739 -9.933930
v 0.065524 9.917691 -8.884620
v -0.966630 10.277736 -8.977250
v -0.773118 10.198138 -7.989465
v 2.371196 6.342835 -5.963344
v 2.981698 6.464804 -5.290253
v 2.462821 6.650017 -5.694268
v 2.046587 6.533167 -6.462782
v 4.450128 5.763866 -5.592060
v 4.551843 6.037282 -5.385302
v 3.541622 6.102640 -5.259920
v 3.863086 6.446160 -5.184095
v 5.102888 5.706549 -6.021830
v 5.162385 5.389743 -7.026981
v 5.309624 5.566102 -7.701812
v 5.394617 5.713498 -6.758088
v 4.838712 5.359201 -8.065144
v 4.996686 5.633139 -8.297861
v 3.493917 5.674601 -8.705462
v 3.165759 6.036604 -8.866094
v 4.370710 5.559329 -8.722865
v 2.466944 6.085227 -8.300211
v 3.719605 6.060422 -8.938549
v 4.401975 5.776652 -8.782181
v 2.501216 7.024862 -6.130891
v 2.049820 6.290632 -7.246434
v 2.418706 6.411511 -8.309608
v 2.007902 6.733877 -6.916207
v 2.100058 6.603750 -7.665358
v 3.020486 6.625473 -8.518159
v 2.684935 6.993890 -7.861019
v 2.580831 7.180128 -7.145228
v 3.387107 6.918333 -5.526300
v 4.336638 6.748352 -5.684276
v 3.368601 7.267925 -6.246499
v 4.995756 6.323803 -6.034243
v 5.264978 6.245924 -6.882766
v 5.274257 5.969801 -7.652287
v 4.896276 6.325572 -8.107846
v 5.030103 6.557754 -7.367600
v 4.802333 6.716868 -6.351970
v 4.311908 6.394590 -8.576182
v 3.588128 6.825453 -8.390005
v 4.326863 6.899836 -7.869353
v 3.600468 7.273396 -7.456166
v 4.233123 7.176753 -6.734860
vt -0.156727 0.433421
vt -0.320594 0.323639
vt -0.180014 -0.032514
vt -0.127759 0.867787
vt -0.310967 0.739989
vt -0.303000 1.006078
vt -0.106759 2.812118
vt -0.227917 2.820234
vt -0.094530 2.389927
vt -0.289791 2.480721
vt -0.085892 2.393806
vt -0.251818 2.477697
vt -0.245982 1.553122
vt -0.216978 3.073367
vt -0.122869 0.929492
vt -0.283839 0.677918
vt -0.113459 0.179196
vt -0.210096 0.036207
vt -0.112668 1.550364
vt -0.134397 2.498291
vt -0.265515 1.561606
vt -0.283606 2.976258
vt -0.283817 2.405503
vt -0.115460 3.073367
vt -0.031533 0.162217
vt -0.142042 0.837348
vt -0.259203 0.460824
vt -0.132691 2.187928
vt -0.272255 1.559283
vt -0.115372 1.326270
vt -0.284992 2.977647
vt -0.284934 2.401114
vt -0.114681 2.941106
vt -0.218394 0.817371
vt -0.130445 0.239501
vt -0.285366 0.138962
vt -0.096433 0.168494
vt -0.181673 0.618846
vt -0.286546 0.158013
vt -0.137210 0.907768
vt -0.282838 0.617778
vt -0.130622 0.162788
vt -0.064203 1.409383
vt -0.237455 1.336851
vt -0.314641 1.019487
vt -0.308357 0.213008
vt -0.309719 0.506274
vt -0.243367 0.047141
vt -0.126206 0.360723
vt -0.291149 0.980751
vt -0.091334 1.081106
vt 2.815996 0.955446
vt 2.871534 1.324951
vt 2.309114 1.334686
vt 2.034537 0.907442
vt 1.483619 1.345646
vt 1.403008 0.910003
vt 0.838692 0.909036
vt 0.598426 1.333631
vt 0.193931 0.901309
vt 0.000000 1.324378
vt 1.576374 0.313127
vt 0.786226 0.256598
vt 1.158126 0.000000
vt 1.770463 0.000000
vt 2.486156 0.156714
vt 0.283279 0.150828
vt 2.964583 0.876360
vt 2.539022 1.330706
vt 2.487053 0.908473
vt 1.632171 0.908056
vt 1.440620 1.345658
vt 0.838691 0.909036
vt 0.644745 1.334433
vt 0.234408 0.930799
vt 0.094146 1.324959
vt 0.000000 0.696451
vt 0.536671 0.236632
vt 0.045251 0.253884
vt 0.842164 0.000000
vt 1.364759 0.158655
vt 2.037313 0.212816
vt 2.808613 0.198495
vt 1.055174 0.000000
vt 1.325632 0.134884
vt 0.698262 0.449190
vt 0.000000 1.852864
vt 0.197974 1.293235
vt 0.049673 2.371017
vt 1.345981 1.504345
vt 0.726613 1.816746
vt 0.966138 1.102275
vt 1.336498 0.737856
vt 1.334526 2.315619
vt 0.758787 2.534664
vt 1.324950 2.871783
vt 0.119067 0.464218
vt 0.064655 2.873123
vt 1.322184 2.407123
vt 1.325925 2.792138
vt 0.806035 2.876895
vt 0.380369 2.548418
vt 0.392978 2.962562
vt 0.069773 0.625580
vt 0.487988 0.335258
vt 0.074363 1.207076
vt 0.611175 1.333309
vt 0.118531 1.944685
vt 1.055155 0.000000
vt 1.305393 0.154982
vt 1.325554 0.554912
vt 1.003923 0.685120
vt 0.856271 2.138256
vt 0.016871 1.489560
vt -2.240289 1.083770
vt 0.820186 0.660888
vt -2.485009 0.688722
vt 0.943563 0.149560
vt -2.482394 -0.688162
vt 0.746597 -0.764458
vt -1.946159 -1.363622
vt 0.300516 -1.373928
vt -3.337676 0.545608
vt -3.585040 -0.064294
vt -3.372272 -0.533440
vt -2.833778 -0.763429
vt -0.477474 -1.726619
vt -1.284523 -1.717329
vt -1.313802 1.673440
vt 0.182471 0.499737
vt 0.508120 0.481384
vt 0.490605 0.752127
vt 0.083971 1.020103
vt 0.449174 1.232500
vt 0.121324 1.443672
vt 0.495771 0.957289
vt 0.506063 1.373334
vt 0.160084 1.304972
vt 0.110887 0.222888
vt 0.402614 0.018636
vt 0.495349 0.201620
vt 0.481479 0.629954
vt 0.103014 0.753316
vt 1.324107 0.145031
vt 1.349649 0.490095
vt 0.937723 0.508209
vt 0.768833 0.182799
vt 0.483082 0.508180
vt 0.462324 0.107706
vt 0.863455 1.533856
vt 0.507335 1.334730
vt 0.856759 1.212732
vt 0.531570 0.604247
vt 0.953623 0.628147
vt 1.080510 0.112713
vt 0.540145 0.002394
vt 1.450830 0.246909
vt 1.570916 0.784615
vt 1.294162 1.001922
vt 1.430998 1.391115
vt 2.147997 0.496506
vt 2.514822 0.106398
vt 2.966117 0.721261
vt 1.447761 0.083744
vt 1.326023 0.657003
vt 3.134446 0.000000
vt 1.127011 2.825468
vt 0.683816 3.134446
vt 0.179454 2.890406
vt 0.771689 2.164185
vt 0.081197 2.152211
vt 0.463988 1.240695
vt 0.092278 1.484522
vt 2.718902 1.480646
vt 3.041518 2.003898
vt 2.180213 2.283178
vt 2.693622 2.875958
vt 1.736998 2.842441
vt 3.134446 2.909213
vt 0.093903 0.412251
vt 0.682229 0.505285
vt 1.801188 0.964228
vt 1.168277 1.443648
vt 0.523395 0.081431
vt 1.792646 1.587932
vt 1.491702 2.153145
vt -0.110469 0.194696
vt -0.261901 0.740811
vt -0.313396 0.291470
vt -0.200262 0.000000
vt -0.119707 1.634031
vt -0.324977 1.684288
vt -0.138032 1.123472
vt -0.351580 1.330783
vt -0.323710 0.086881
vt -0.103022 0.150611
vt -0.240901 0.561964
vt -0.113374 1.210503
vt -0.305120 1.618431
vt -0.337325 1.059426
vt -0.108620 1.717083
vt -0.200262 0.000000
vt -0.110436 0.194847
vt -0.340444 0.240688
vt -0.090913 1.264959
vt -0.287912 1.532349
vt -0.196127 0.691089
vt -0.180460 1.748525
vt -0.363037 1.233234
vt -0.338575 0.727027
vt -0.362745 1.759699
vt -0.224641 1.577598
vt -0.270808 1.826149
vt -0.108620 1.717083
vt -0.129669 1.088025
vt -0.177872 0.304697
vt -0.339427 0.379763
vt -0.326081 0.000000
vt -0.352823 1.325220
vt -0.343715 0.841004
vt 0.173939 0.127308
vt 0.427554 0.392361
vt 0.117856 0.659708
vt 0.156342 1.694383
vt 0.081918 1.162578
vt 0.432110 1.297785
vt 0.417237 0.000000
vt 0.444749 0.799578
vt 1.312644 0.426397
vt 0.987220 0.466734
vt 0.858015 0.206265
vt 0.454356 0.404212
vt 0.036536 0.428826
vt 0.298359 0.092358
vt 1.552206 0.195310
vt 1.112118 0.023820
vt 2.400978 0.933226
vt 3.250636 0.739058
vt 2.797431 0.991656
vt 1.865635 0.295663
vt 3.468952 -0.296036
vt 1.910718 -0.556574
vt 2.390855 -0.923166
vt 2.933395 -0.933319
vt 1.666404 0.419688
vt 1.367778 0.207012
vt 1.713135 0.087411
vt 1.262319 0.452162
vt 0.782205 0.447771
vt 0.784188 0.179625
vt 0.201813 0.425130
vt 0.241979 0.222989
vt 0.353408 0.166575
vt 0.448160 0.016871
vt 1.083988 0.000000
vt 1.421033 0.000000
vt 0.427267 1.569303
vt 0.086529 1.629228
vt 0.392094 1.115098
vt 0.154818 0.764072
vt 0.457891 0.688001
vt 0.422454 0.204032
vt 0.234554 0.000000
vt 0.429046 0.000000
vt 0.178840 0.262989
vt 0.016959 1.292718
vt 0.822880 0.056337
vt 1.338677 0.209250
vt 0.773867 0.449408
vt 1.741674 0.662101
vt 1.812759 0.205410
vt 1.222955 0.858091
vt 1.716546 1.272112
vt 1.144770 1.655410
vt 0.810133 1.959029
vt 0.320309 1.852327
vt 0.181199 0.576488
vt 0.139950 1.352212
vt 0.050831 0.924304
vt 0.693987 1.197981
vt 1.619188 1.834993
vn -0.2229 -0.8282 -0.5142
vn 0.2324 -0.0925 -0.9682
vn -0.3135 -0.8286 -0.4639
vn -0.5810 -0.7028 -0.4106
vn -0.2759 -0.0033 -0.9612
vn -0.6760 0.1288 -0.7256
vn -0.6329 -0.6788 0.3724
vn -0.8940 0.0403 0.4463
vn -0.4766 -0.8233 0.3084
vn -0.7083 0.0819 0.7012
vn -0.1761 -0.7936 0.5824
vn 0.1845 -0.2106 0.9600
vn -0.3373 -0.2303 0.9128
vn 0.4917 -0.4833 0.7243
vn -0.5214 -0.6458 0.5577
vn -0.6805 0.0674 0.7297
vn 0.1573 -0.9556 0.2490
vn 0.2433 -0.9687 -0.0503
vn 0.8360 -0.4643 0.2925
vn 0.7238 -0.4835 -0.4923
vn 0.8691 -0.4879 -0.0812
vn 0.1316 -0.9756 -0.1759
vn 0.2812 -0.8775 0.3885
vn -0.2810 -0.8483 -0.4488
vn 0.1197 -0.4156 -0.9016
vn -0.0661 -0.9499 -0.3055
vn -0.5608 -0.0352 -0.8272
vn -0.2386 -0.2568 -0.9365
vn -0.4619 -0.8066 -0.3689
vn 0.3981 -0.6391 -0.6581
vn -0.7792 -0.6206 0.0874
vn -0.9081 0.0955 -0.4078
vn -0.5597 -0.6301 0.5382
vn -0.8877 0.0122 0.4602
vn -0.9448 0.3270 0.0226
vn -0.4407 0.1802 0.8794
vn -0.6858 0.5649 0.4589
vn -0.3891 0.5397 0.7465
vn -0.0813 0.4602 0.8841
vn 0.1682 0.3755 0.9114
vn 0.4684 0.2559 0.8456
vn -0.0782 0.7110 0.6988
vn 0.2719 0.6140 0.7410
vn 0.2838 0.8127 0.5089
vn -0.0070 0.8979 0.4401
vn -0.3989 0.8278 0.3946
vn 0.5675 0.5487 0.6139
vn 0.7516 0.1710 0.6371
vn 0.9456 0.0890 0.3129
vn 0.9968 0.0328 -0.0727
vn 0.9215 -0.0005 -0.3883
vn 0.7389 0.0948 -0.6671
vn 0.9099 0.3053 -0.2810
vn 0.7365 0.3316 -0.5896
vn 0.7618 0.6435 -0.0745
vn 0.9003 0.4260 0.0891
vn 0.8021 0.4705 0.3677
vn 0.1022 0.7693 -0.6306
vn 0.4355 0.4612 -0.7731
vn -0.0327 0.6000 -0.7993
vn 0.1715 0.2649 -0.9489
vn 0.4938 0.0445 -0.8685
vn -0.1758 0.3339 -0.9261
vn -0.4111 0.5366 -0.7369
vn -0.6371 0.7495 0.1801
vn -0.4054 0.7500 -0.5226
vn -0.2730 0.9095 -0.3135
vn -0.1544 0.9024 -0.4023
vn -0.4911 0.8694 -0.0548
vn -0.1392 0.4975 -0.8562
vn -0.3732 0.8547 0.3609
vn 0.1529 0.5821 -0.7986
vn -0.2736 0.7133 -0.6452
vn -0.5199 0.7803 0.3477
vn -0.5278 0.7981 -0.2905
vn -0.1207 0.7056 0.6983
vn 0.1247 0.9564 0.2640
vn 0.1136 0.9407 -0.3196
vn -0.2773 0.9605 -0.0247
vn 0.4695 0.7432 -0.4767
vn 0.5500 0.7895 0.2724
vn -0.1320 0.9820 0.1354
vn 0.6901 0.5839 -0.4276
vn 0.2154 0.8879 -0.4064
vn 0.4977 0.8604 -0.1098
vn 0.1511 0.9793 -0.1349
vn 0.2441 0.9531 0.1789
vn -0.6501 -0.6594 0.3777
vn -0.4327 -0.0417 0.9006
vn -0.6771 0.2490 0.6925
vn -0.9498 -0.0914 0.2993
vn 0.0161 -0.8823 0.4704
vn 0.4832 -0.1372 0.8647
vn -0.2052 -0.6450 0.7361
vn 0.1662 0.2418 0.9560
vn 0.6968 -0.5078 0.5066
vn 0.2993 -0.9473 0.1142
vn 0.8743 -0.4011 -0.2733
vn 0.9561 -0.2249 0.1878
vn 0.1812 -0.9581 -0.2220
vn 0.7289 -0.2391 -0.6415
vn -0.2410 -0.8561 -0.4571
vn -0.3855 -0.1404 -0.9120
vn 0.1733 -0.7057 -0.6870
vn -0.6868 -0.6251 -0.3709
vn 0.0172 0.0701 -0.9974
vn 0.4255 0.0159 -0.9048
vn -0.5012 0.7925 0.3476
vn -0.7878 -0.6145 -0.0425
vn -0.7266 0.2531 -0.6387
vn -0.9143 0.4050 0.0081
vn -0.8894 0.2891 -0.3542
vn -0.2538 0.6294 -0.7345
vn -0.3602 0.8315 -0.4230
vn -0.3855 0.9171 -0.1016
vn -0.0275 0.7710 0.6362
vn 0.4537 0.7090 0.5399
vn 0.0059 0.9694 0.2455
vn 0.8000 0.4001 0.4471
vn 0.8999 0.4322 0.0576
vn 0.9198 0.2770 -0.2780
vn 0.6874 0.5095 -0.5176
vn 0.7253 0.6710 -0.1541
vn 0.6500 0.7292 0.2139
vn 0.4174 0.5599 -0.7157
vn 0.0607 0.7829 -0.6192
vn 0.4193 0.8295 -0.3690
vn 0.0723 0.9719 -0.2239
vn 0.3871 0.9190 0.0752
usemtl HP_3D_HR_CB_PA_12_(with_HP_Jet_Fusion_580_Color_3D_Printer)
s 1
f 1/1/1 2/2/2 3/3/3
f 1/1/1 4/4/4 5/5/5
f 4/4/4 6/6/6 5/5/5
f 1/1/1 5/5/5 2/2/2
f 7/7/7 8/8/8 9/9/9
f 9/9/9 8/8/8 10/10/10
f 11/11/11 12/12/12 13/13/13
f 11/11/11 14/14/14 12/12/12
f 15/15/15 11/11/11 13/13/13
f 15/15/15 13/13/13 16/16/16
f 15/15/15 16/16/16 7/17/7
f 7/17/7 16/16/16 8/18/8
f 17/19/17 18/20/18 19/21/19
f 20/22/20 21/23/21 18/20/18
f 22/24/22 20/22/20 18/20/18
f 11/25/11 23/26/23 14/27/14
f 18/20/18 21/23/21 19/21/19
f 17/19/17 19/21/19 23/26/23
f 23/26/23 19/21/19 14/27/14
f 24/28/24 25/29/25 26/30/26
f 27/31/27 28/32/28 29/33/29
f 26/30/26 30/34/30 22/35/22
f 29/33/29 28/32/28 24/28/24
f 24/28/24 28/32/28 25/29/25
f 26/30/26 25/29/25 30/34/30
f 22/35/22 30/34/30 20/36/20
f 29/37/29 3/38/3 27/39/27
f 31/40/31 32/41/32 4/42/4
f 33/43/33 34/44/34 31/40/31
f 34/44/34 35/45/35 31/40/31
f 31/40/31 35/45/35 32/41/32
f 4/42/4 32/41/32 6/46/6
f 36/47/36 34/48/34 33/49/33
f 36/47/36 33/49/33 10/50/10
f 33/49/33 9/51/9 10/50/10
f 37/52/37 8/53/8 16/54/16
f 37/52/37 16/54/16 38/55/38
f 38/55/38 16/54/16 13/56/13
f 38/55/38 13/56/13 39/57/39
f 39/57/39 13/56/13 40/58/40
f 40/58/40 13/56/13 12/59/12
f 40/58/40 12/59/12 41/60/41
f 41/60/41 12/59/12 14/61/14
f 42/62/42 43/63/43 44/64/44
f 42/62/42 44/64/44 45/65/45
f 42/62/42 45/65/45 46/66/46
f 46/66/46 37/52/37 38/55/38
f 40/58/40 41/60/41 43/63/43
f 43/63/43 41/60/41 47/67/47
f 42/62/42 40/58/40 43/63/43
f 39/57/39 40/58/40 42/62/42
f 38/55/38 42/62/42 46/66/46
f 39/57/39 42/62/42 38/55/38
f 41/68/41 14/69/14 48/70/48
f 48/70/48 14/69/14 49/71/49
f 49/71/49 14/69/14 19/72/19
f 49/71/49 19/72/19 50/73/50
f 50/73/50 19/72/19 21/74/21
f 50/73/50 21/74/21 51/75/51
f 51/75/51 21/74/21 20/76/20
f 51/75/51 52/77/52 53/78/53
f 52/77/52 54/79/54 53/78/53
f 53/78/53 55/80/55 56/81/56
f 57/82/57 48/70/48 49/71/49
f 41/68/41 48/70/48 47/83/47
f 47/83/47 48/70/48 57/82/57
f 50/73/50 51/75/51 53/78/53
f 56/81/56 50/73/50 53/78/53
f 49/71/49 50/73/50 56/81/56
f 56/81/56 57/82/57 49/71/49
f 51/84/51 20/85/20 52/86/52
f 58/87/58 59/88/59 60/89/60
f 25/90/25 61/91/61 62/92/62
f 25/90/25 62/92/62 30/93/30
f 30/93/30 62/92/62 52/86/52
f 20/85/20 30/93/30 52/86/52
f 25/90/25 28/94/28 61/91/61
f 61/91/61 28/94/28 63/95/63
f 63/95/63 28/94/28 27/96/27
f 59/88/59 54/97/54 52/86/52
f 63/95/63 64/98/64 60/89/60
f 52/86/52 62/92/62 59/88/59
f 59/88/59 61/91/61 60/89/60
f 59/88/59 62/92/62 61/91/61
f 60/89/60 61/91/61 63/95/63
f 10/99/10 8/100/8 37/101/37
f 65/102/65 37/101/37 46/103/46
f 66/104/66 64/105/64 67/106/67
f 67/106/67 64/105/64 68/107/68
f 67/106/67 68/107/68 69/108/69
f 64/105/64 63/109/63 27/110/27
f 27/110/27 3/111/3 70/112/70
f 70/112/70 68/107/68 64/105/64
f 69/108/69 68/107/68 71/113/71
f 69/108/69 71/113/71 65/102/65
f 71/113/71 10/99/10 37/101/37
f 65/102/65 71/113/71 37/101/37
f 64/105/64 27/110/27 70/112/70
f 11/114/11 7/115/7 23/116/23
f 23/116/23 7/115/7 9/117/9
f 23/116/23 9/117/9 17/118/17
f 17/118/17 9/117/9 3/119/3
f 17/118/17 3/119/3 18/120/18
f 18/120/18 3/119/3 29/121/29
f 18/120/18 29/121/29 22/122/22
f 9/117/9 33/123/33 31/124/31
f 9/117/9 31/124/31 3/119/3
f 3/119/3 31/124/31 4/125/4
f 4/125/4 1/126/1 3/119/3
f 22/122/22 29/121/29 26/127/26
f 26/127/26 29/121/29 24/128/24
f 7/115/7 11/114/11 15/129/15
f 70/130/70 3/131/3 2/132/2
f 70/130/70 2/132/2 72/133/72
f 2/132/2 5/134/5 72/133/72
f 5/134/5 73/135/73 72/133/72
f 35/136/35 34/137/34 74/138/74
f 73/139/73 5/140/5 6/141/6
f 6/141/6 32/142/32 73/139/73
f 73/139/73 32/142/32 75/143/75
f 75/143/75 32/142/32 35/136/35
f 74/138/74 75/143/75 35/136/35
f 74/144/74 34/145/34 36/146/36
f 74/144/74 36/146/36 76/147/76
f 36/146/36 10/148/10 76/147/76
f 76/147/76 10/148/10 71/149/71
f 76/150/76 71/151/71 77/152/77
f 77/152/77 71/151/71 68/153/68
f 77/152/77 68/153/68 78/154/78
f 72/155/72 68/153/68 70/156/70
f 78/154/78 68/153/68 72/155/72
f 73/157/73 75/158/75 79/159/79
f 78/154/78 79/159/79 77/152/77
f 79/159/79 75/158/75 74/160/74
f 76/150/76 77/152/77 74/160/74
f 74/160/74 77/152/77 79/159/79
f 79/159/79 78/154/78 73/157/73
f 78/154/78 72/155/72 73/157/73
f 58/161/58 60/162/60 66/163/66
f 59/164/59 58/161/58 80/165/80
f 60/162/60 64/166/64 66/163/66
f 44/167/44 43/168/43 47/169/47
f 81/170/81 47/169/47 57/171/57
f 81/170/81 57/171/57 55/172/55
f 55/172/55 57/171/57 56/173/56
f 67/174/67 69/175/69 82/176/82
f 82/176/82 46/177/46 45/178/45
f 69/175/69 65/179/65 46/177/46
f 46/177/46 82/176/82 69/175/69
f 55/172/55 53/180/53 83/181/83
f 80/165/80 58/161/58 84/182/84
f 55/172/55 83/181/83 85/183/85
f 85/183/85 83/181/83 80/165/80
f 54/184/54 59/164/59 83/181/83
f 83/181/83 59/164/59 80/165/80
f 58/161/58 66/163/66 67/174/67
f 84/182/84 58/161/58 67/174/67
f 84/182/84 67/174/67 86/185/86
f 86/185/86 67/174/67 82/176/82
f 87/186/87 86/185/86 82/176/82
f 87/186/87 82/176/82 45/178/45
f 80/165/80 84/182/84 85/183/85
f 85/183/85 84/182/84 86/185/86
f 85/183/85 86/185/86 87/186/87
f 44/167/44 87/186/87 45/178/45
f 85/183/85 87/186/87 81/170/81
f 81/170/81 87/186/87 44/167/44
f 55/172/55 85/183/85 81/170/81
f 81/170/81 44/167/44 47/169/47
f 54/184/54 83/181/83 53/180/53
f 88/187/88 89/188/89 90/189/90
f 91/190/91 88/187/88 90/189/90
f 92/191/92 93/192/93 94/193/94
f 94/193/94 95/194/95 89/188/89
f 89/188/89 88/187/88 94/193/94
f 94/193/94 93/192/93 95/194/95
f 93/195/93 92/196/92 96/197/96
f 97/198/97 98/199/98 99/200/99
f 97/198/97 99/200/99 96/197/96
f 100/201/100 98/199/98 97/198/97
f 92/196/92 97/198/97 96/197/96
f 98/202/98 100/203/100 101/204/101
f 102/205/102 103/206/103 104/207/104
f 102/205/102 105/208/105 103/206/103
f 103/206/103 106/209/106 104/207/104
f 104/207/104 106/209/106 107/210/107
f 104/207/104 100/203/100 102/205/102
f 104/207/104 107/210/107 101/204/101
f 100/203/100 104/207/104 101/204/101
f 108/211/108 91/212/91 90/213/90
f 88/214/88 91/212/91 109/215/109
f 105/216/105 110/217/110 103/218/103
f 91/212/91 108/211/108 111/219/111
f 109/215/109 91/212/91 111/219/111
f 109/215/109 111/219/111 112/220/112
f 109/215/109 112/220/112 105/216/105
f 105/216/105 112/220/112 110/217/110
f 113/221/113 110/222/110 114/223/114
f 108/224/108 115/225/115 111/226/111
f 110/222/110 113/221/113 103/227/103
f 114/223/114 110/222/110 112/228/112
f 114/223/114 112/228/112 115/225/115
f 115/225/115 112/228/112 111/226/111
f 90/229/90 89/230/89 116/231/116
f 116/231/116 89/230/89 95/232/95
f 93/233/93 117/234/117 95/232/95
f 116/231/116 108/235/108 90/229/90
f 116/231/116 95/232/95 117/234/117
f 108/235/108 116/231/116 118/236/118
f 88/237/88 92/238/92 94/239/94
f 92/238/92 88/237/88 109/240/109
f 92/238/92 109/240/109 97/241/97
f 97/241/97 109/240/109 105/242/105
f 97/241/97 105/242/105 102/243/102
f 97/241/97 102/243/102 100/244/100
f 93/245/93 119/246/119 117/247/117
f 93/245/93 96/248/96 119/246/119
f 119/246/119 96/248/96 99/249/99
f 119/246/119 99/249/99 120/250/120
f 99/249/99 98/251/98 121/252/121
f 122/253/122 123/254/123 121/252/121
f 120/250/120 124/255/124 119/246/119
f 119/246/119 124/256/124 117/247/117
f 121/252/121 120/250/120 99/249/99
f 120/250/120 121/252/121 123/254/123
f 103/257/103 113/258/113 106/259/106
f 106/259/106 125/260/125 107/261/107
f 101/262/101 122/253/122 121/263/121
f 101/262/101 121/263/121 98/264/98
f 122/265/122 101/262/101 107/261/107
f 125/260/125 122/265/122 107/261/107
f 106/259/106 126/266/126 125/260/125
f 113/258/113 126/266/126 106/259/106
f 125/267/125 126/268/126 127/269/127
f 114/270/114 126/268/126 113/271/113
f 126/268/126 128/272/128 127/269/127
f 128/272/128 115/273/115 118/274/118
f 118/274/118 116/275/116 117/276/117
f 123/277/123 124/278/124 120/279/120
f 123/277/123 122/253/122 127/269/127
f 128/272/128 126/268/126 114/270/114
f 122/253/122 125/267/125 127/269/127
f 128/272/128 114/270/114 115/273/115
f 129/280/129 128/272/128 118/274/118
f 127/269/127 128/272/128 129/280/129
f 129/280/129 118/274/118 117/276/117
f 123/277/123 127/269/127 129/280/129
f 123/277/123 129/280/129 124/278/124
f 124/278/124 129/280/129 117/276/117
f 115/273/115 108/281/108 118/274/118
